<?xml version="1.0" encoding="utf-8"?>
<!-- Generator: Adobe Illustrator 27.1.1, SVG Export Plug-In . SVG Version: 6.00 Build 0)  -->
<svg version="1.1" id="Layer_1" xmlns="http://www.w3.org/2000/svg" xmlns:xlink="http://www.w3.org/1999/xlink" x="0px" y="0px"
	 viewBox="0 0 512 512" style="enable-background:new 0 0 512 512;" xml:space="preserve">
<style type="text/css">
	.st0{fill-rule:evenodd;clip-rule:evenodd;}
</style>
<path class="st0" d="M501.93,204.81c-5.55,0-10.06,4.49-10.06,10.01c0,5.52,4.52,10.01,10.06,10.01S512,220.34,512,214.82
	C512,209.3,507.48,204.81,501.93,204.81z M507.15,220.67l-3.4-5.08c1.49-0.25,2.41-1.1,2.7-1.56c0.39-0.59,0.59-1.22,0.59-1.88
	c0-0.86-0.35-1.65-1.05-2.34c-0.71-0.71-1.78-1.08-3.21-1.08h-5.25v12.07h2.14v-5.12h1.57l3.4,5.03l0.06,0.09h2.31
	c-1.42,1.21-3.22,1.88-5.08,1.88c-4.36,0-7.91-3.53-7.91-7.86c0.02-4.35,3.56-7.87,7.91-7.85c4.36,0,7.91,3.53,7.91,7.86
	C509.83,217.07,508.84,219.19,507.15,220.67L507.15,220.67z M504.8,212.14c0,0.44-0.12,0.71-0.53,1.1
	c-0.35,0.34-0.92,0.51-1.68,0.51h-2.92v-3.12h3.12c0.6,0,1.1,0.14,1.49,0.43C504.64,211.31,504.8,211.65,504.8,212.14z
	 M77.19,301.54v-56.61c0-7.22-0.33-11.86-1.06-15.03c-3.93-16.94-19.72-29.25-37.53-29.25s-33.6,12.3-37.53,29.25
	C0.33,233.06,0,237.7,0,244.93v56.61c0,5.4,4.45,9.8,9.9,9.8c5.47,0,9.91-4.39,9.91-9.8v-22.51h37.55v22.51c0,5.4,4.45,9.8,9.9,9.8
	C72.74,311.33,77.19,306.94,77.19,301.54z M19.83,244.93c0-7.42,0.39-9.92,0.56-10.65c1.88-8.12,9.55-14.03,18.22-14.03
	c8.66,0,16.32,5.89,18.21,14.03c0.17,0.73,0.56,3.23,0.56,10.65v14.49H19.82L19.83,244.93L19.83,244.93z M162.45,252.06
	c3.63-5.01,5.71-11.56,5.71-18.04c0-15.7-11.91-29.29-27.7-31.61c-2.18-0.3-5.58-0.3-8.07-0.3h-5.85c-1.01,0-8.77-0.01-10.1,0.15
	c-10.01,1.2-17.19,7.77-18.74,17.16c-0.31,1.53-0.31,4.58-0.31,7.02v59.35c0,2.57,0,5.48,0.31,7.01
	c1.39,9.12,7.93,15.48,17.49,17.01c2.49,0.45,5.1,0.45,7.63,0.45h18.03c2.42,0,5.73,0,7.91-0.3c7.63-1.11,14.63-4.88,19.74-10.65
	c5.12-5.78,7.95-13.24,7.96-20.96C176.48,267.79,171.23,257.93,162.45,252.06z M117.13,246.42v-21.74c0-1.77,1.47-3.2,3.26-3.2
	h12.47c3.52,0,5.56,0.21,7.06,0.75c5.01,1.69,8.37,6.43,8.37,11.81c0,5.28-3.37,9.97-8.38,11.65c-1.83,0.66-4.47,0.75-7.05,0.75
	h-15.73V246.42L117.13,246.42z M141.32,290.75c2.89,0,5.15-0.12,6.9-0.75c5.1-1.67,8.53-6.35,8.54-11.65c0-5.24-3.43-9.98-8.53-11.8
	c-1.74-0.63-4.02-0.75-6.9-0.75h-24.19v21.75c0,1.76,1.46,3.2,3.26,3.2H141.32z M259.48,300.51c0-4.36-3.19-8.34-7.56-9.45
	c-0.96-0.31-2.33-0.31-4.23-0.31h-31.66c-1.8,0-3.26-1.44-3.26-3.2V265.8h27.9c2.03,0,3.26,0,4.22-0.15
	c4.47-1.1,7.58-4.98,7.58-9.46c0-4.54-3.05-8.34-7.57-9.45c-0.95-0.31-2.19-0.31-4.24-0.31h-27.9v-21.75c0-1.77,1.47-3.2,3.26-3.2
	h31.66c1.9,0,3.28,0,4.22-0.31c4.46-1.13,7.57-5.02,7.57-9.45c0-4.36-3.19-8.34-7.59-9.46c-0.95-0.15-2.31-0.15-4.21-0.15h-29.85
	c-2.16,0-4.03,0-5.9,0.15c-10.06,1.37-17.18,8.18-18.58,17.77c-0.1,0.55-0.19,2.23-0.27,5.01l0.01,61.98
	c0.07,3.02,0.16,4.71,0.25,5.17c1.4,9.75,8.52,16.56,18.58,17.78c1.87,0.3,3.74,0.3,5.91,0.3h29.85c1.9,0,3.28,0,4.22-0.31
	C256.29,308.84,259.48,304.87,259.48,300.51L259.48,300.51z M409.59,229.9c3.93-16.95,19.72-29.25,37.53-29.25
	c17.82,0,33.6,12.3,37.51,29.25c0.73,3.17,1.06,7.8,1.06,15.03v56.61c0,5.4-4.45,9.8-9.91,9.8c-5.45,0-9.9-4.39-9.9-9.8v-22.51
	h-37.55v22.51c0,5.4-4.44,9.8-9.9,9.8c-5.46,0-9.9-4.39-9.9-9.8v-56.61C408.53,237.7,408.86,233.06,409.59,229.9z M428.91,234.29
	c-0.17,0.73-0.56,3.23-0.56,10.65v14.5h37.55v-14.49c0-7.45-0.39-9.93-0.56-10.65c-1.88-8.14-9.54-14.03-18.21-14.03
	C438.46,220.26,430.8,226.16,428.91,234.29z M386.78,303.87v0.02c-1.1,4.38-5.05,7.45-9.57,7.45c-4.53,0.04-8.5-3.05-9.56-7.46
	c-0.31-0.93-0.31-2.14-0.31-4.15l-0.01-67.26c0-6.74-5.55-12.23-12.36-12.23c-6.82,0-12.36,5.49-12.36,12.23l-0.07,8.02v59.23
	c0,2.01,0,3.23-0.32,4.17c-1.07,4.4-5.03,7.49-9.56,7.44c-4.52,0-8.46-3.07-9.56-7.45c-0.22-1.37-0.33-2.76-0.31-4.15v-59.09
	l-0.08-8.17c0-6.74-5.55-12.23-12.36-12.23c-6.82,0-12.36,5.49-12.36,12.23l-0.01,1.86v65.41c0,2.01,0,3.22-0.32,4.17
	c-1.07,4.4-5.03,7.49-9.56,7.44c-4.52,0-8.46-3.07-9.57-7.46c-0.22-1.37-0.33-2.76-0.31-4.15v-67.27
	c0-17.54,14.41-31.81,32.13-31.81c8.31-0.01,16.3,3.21,22.29,8.97c6-5.77,14.01-8.99,22.33-8.97c17.72,0,32.13,14.27,32.13,31.81
	v67.27C387.1,301.78,386.92,303.02,386.78,303.87L386.78,303.87z"/>
</svg>
