<?xml version="1.0" standalone="no"?>
<!DOCTYPE svg PUBLIC "-//W3C//DTD SVG 20010904//EN"
 "http://www.w3.org/TR/2001/REC-SVG-20010904/DTD/svg10.dtd">
<svg version="1.0" xmlns="http://www.w3.org/2000/svg"
 width="700.000000pt" height="700.000000pt" viewBox="0 0 700.000000 700.000000"
 preserveAspectRatio="xMidYMid meet">

<g transform="translate(0.000000,700.000000) scale(0.100000,-0.100000)"
fill="#000000" stroke="none">
<path d="M3235 6990 c-712 -59 -1373 -321 -1930 -767 -134 -106 -412 -383
-516 -513 -437 -543 -690 -1154 -771 -1855 -16 -142 -16 -568 0 -710 61 -528
216 -994 476 -1432 246 -415 604 -799 1002 -1079 1122 -786 2605 -843 3782
-145 423 250 806 605 1088 1007 843 1202 843 2806 0 4008 -228 325 -537 634
-862 862 -483 338 -1036 546 -1634 614 -132 15 -503 20 -635 10z m427 -170
c201 -11 350 -30 519 -66 1287 -270 2302 -1284 2573 -2570 153 -728 56 -1490
-275 -2154 -172 -345 -348 -592 -617 -864 -272 -276 -540 -470 -892 -645 -512
-255 -1061 -369 -1637 -340 -471 24 -867 127 -1298 339 -660 324 -1180 841
-1509 1500 -212 425 -323 847 -345 1315 -27 584 85 1123 340 1635 173 348 349
593 622 868 280 283 541 470 902 647 414 203 824 311 1275 334 80 5 150 9 155
9 6 1 90 -3 187 -8z"/>
<path d="M3160 6393 c-63 -8 -116 -16 -118 -17 -4 -4 38 -349 43 -354 2 -3 60
2 127 9 l123 14 -3 30 c-2 16 -5 31 -7 33 -2 2 -41 -1 -86 -7 -45 -6 -84 -10
-85 -8 -2 1 -6 21 -10 44 l-6 41 86 7 86 7 0 35 0 35 -62 -7 c-35 -3 -75 -8
-90 -11 -25 -5 -28 -2 -28 19 0 14 -3 32 -6 40 -6 16 4 18 124 33 52 6 53 7
50 37 -2 17 -7 31 -13 32 -5 1 -62 -4 -125 -12z"/>
<path d="M3869 6389 c0 -2 -15 -82 -33 -177 -22 -117 -29 -175 -22 -177 65
-19 64 -21 77 60 13 83 10 81 91 65 107 -22 97 -10 81 -92 -15 -79 -11 -88 38
-88 25 0 25 2 57 177 17 97 31 178 29 179 -1 1 -18 4 -37 6 l-34 3 -13 -64
c-7 -36 -15 -66 -17 -69 -6 -6 -149 19 -159 28 -5 4 -3 35 3 70 6 34 10 64 7
66 -5 6 -67 17 -68 13z"/>
<path d="M2608 6272 c-48 -15 -89 -30 -93 -33 -3 -3 18 -81 46 -173 46 -145
55 -166 73 -166 43 0 52 15 39 62 -6 24 -14 50 -18 59 -4 12 2 19 23 27 28 9
33 7 82 -43 50 -51 54 -53 84 -43 17 6 35 14 39 18 4 4 -17 28 -47 54 l-55 47
25 36 c28 41 30 61 10 106 -32 77 -83 89 -208 49z m122 -60 c38 -31 21 -66
-43 -90 l-52 -20 -11 26 c-28 67 -28 69 18 85 57 20 62 20 88 -1z"/>
<path d="M4421 6080 c-72 -76 -131 -141 -131 -144 0 -3 17 -13 38 -21 36 -16
37 -16 59 9 l21 25 69 -28 c65 -26 68 -29 71 -63 3 -31 8 -37 42 -50 l38 -16
7 152 c4 83 5 171 3 195 -3 41 -6 45 -45 62 l-41 17 -131 -138z m145 9 c-3
-17 -6 -53 -6 -80 l0 -49 -42 17 c-24 9 -47 20 -52 24 -9 8 82 119 98 119 5 0
6 -14 2 -31z"/>
<path d="M2235 6123 c-16 -8 -31 -17 -33 -18 -2 -1 146 -316 152 -323 7 -7 66
22 66 31 -1 7 -36 83 -78 169 l-77 157 -30 -16z"/>
<path d="M4896 6021 l-16 -29 46 -27 c43 -25 44 -28 31 -48 -8 -12 -43 -70
-79 -128 l-66 -106 29 -17 c16 -9 33 -15 38 -12 5 3 41 58 80 121 40 63 75
115 78 115 4 0 25 -11 48 -24 l41 -25 17 29 17 28 -113 69 c-61 39 -117 73
-124 77 -7 4 -18 -5 -27 -23z"/>
<path d="M1932 5957 l-31 -23 39 -55 c22 -30 40 -57 40 -60 0 -3 -32 -28 -71
-55 -57 -39 -72 -46 -79 -34 -5 8 -22 34 -40 58 l-31 43 -30 -18 c-16 -10 -27
-23 -25 -30 5 -12 147 -217 186 -270 l17 -21 29 23 29 23 -43 62 c-24 34 -42
63 -40 64 70 54 141 97 146 90 36 -52 76 -110 78 -112 6 -9 64 34 60 44 -3 8
-70 105 -201 291 -1 2 -16 -8 -33 -20z"/>
<path d="M5226 5618 l-118 -130 26 -26 26 -26 54 53 54 54 61 -53 c34 -29 61
-56 61 -60 0 -3 -22 -31 -50 -62 l-49 -55 23 -22 c30 -28 40 -27 73 13 15 18
68 77 117 130 l89 97 -27 27 -28 27 -48 -54 -49 -54 -64 59 -65 59 48 54 48
54 -28 24 c-15 12 -29 23 -31 22 -2 0 -57 -59 -123 -131z"/>
<path d="M1500 5580 c-82 -22 -139 -83 -147 -155 -5 -39 -2 -47 25 -75 43 -42
89 -41 166 6 65 39 99 41 104 6 5 -30 -44 -77 -97 -93 -40 -12 -42 -14 -35
-43 3 -17 8 -33 10 -35 10 -11 90 24 125 56 77 70 92 142 39 195 -28 27 -36
30 -78 26 -29 -3 -66 -17 -99 -37 -54 -35 -86 -37 -91 -8 -5 25 25 56 76 79
42 19 49 34 34 69 -5 11 -14 14 -32 9z"/>
<path d="M5640 5191 c-96 -26 -174 -51 -174 -55 1 -4 11 -21 23 -36 19 -26 24
-28 51 -18 17 6 32 9 33 7 2 -2 22 -30 46 -63 45 -61 45 -59 14 -116 -2 -3 8
-21 21 -39 l25 -33 106 162 106 162 -27 39 c-15 22 -32 39 -38 38 -6 0 -90
-22 -186 -48z m154 -43 c-36 -61 -87 -128 -93 -121 -43 51 -61 84 -49 88 10 4
131 40 146 44 2 1 0 -5 -4 -11z"/>
<path d="M1131 5197 l-20 -33 29 -94 c17 -51 29 -95 27 -96 -2 -2 -30 15 -62
36 -33 22 -62 40 -65 40 -7 0 -43 -60 -38 -64 1 -2 68 -47 148 -100 l145 -96
22 28 c13 15 23 29 23 32 0 3 -23 20 -50 38 -30 19 -50 39 -50 51 0 16 11 19
90 25 90 7 91 8 115 44 13 20 23 37 22 38 -1 1 -38 -2 -82 -6 -44 -5 -98 -9
-121 -9 l-41 -1 -29 100 c-16 55 -32 100 -36 100 -3 0 -16 -15 -27 -33z"/>
<path d="M2240 4325 l0 -725 308 0 c334 0 419 8 499 45 194 88 273 325 176
524 -31 65 -95 131 -154 162 l-43 21 37 20 c236 120 229 505 -11 627 -91 46
-136 51 -484 51 l-328 0 0 -725z m646 530 c56 -16 105 -61 128 -117 33 -78 12
-193 -45 -245 -55 -50 -90 -57 -316 -61 l-213 -4 0 221 0 221 198 0 c146 0
212 -4 248 -15z m18 -617 c83 -25 156 -126 156 -217 0 -66 -22 -124 -64 -166
-61 -60 -91 -67 -338 -72 l-218 -5 0 236 0 236 211 0 c138 0 226 -4 253 -12z"/>
<path d="M3630 4325 l0 -725 100 0 100 0 0 330 0 330 375 0 375 0 0 -330 0
-330 100 0 100 0 0 725 0 725 -100 0 -100 0 0 -305 0 -305 -375 0 -375 0 0
305 0 305 -100 0 -100 0 0 -725z"/>
<path d="M5928 4771 l-147 -121 14 -33 c7 -17 21 -34 30 -35 9 -2 58 3 109 12
52 9 101 16 111 16 10 0 -24 -33 -78 -76 -54 -41 -97 -80 -97 -85 0 -6 7 -23
15 -40 14 -26 20 -29 48 -24 18 3 99 14 181 25 82 11 151 22 153 24 2 1 -4 19
-12 39 -13 32 -18 36 -43 31 -140 -26 -232 -39 -231 -35 0 3 45 40 99 81 99
75 111 92 88 122 -12 15 -23 14 -128 -3 -63 -11 -121 -18 -128 -17 -7 2 35 38
92 82 104 78 105 79 92 105 -7 14 -15 32 -17 39 -3 9 -59 -31 -151 -107z"/>
<path d="M883 4714 c-20 -10 -40 -32 -52 -58 -39 -81 -71 -159 -68 -163 2 -1
78 -34 168 -72 l164 -69 12 27 c19 41 16 45 -38 66 -57 22 -66 34 -50 63 9 16
25 22 85 27 l74 7 16 40 15 40 -57 -7 c-31 -3 -67 -9 -79 -12 -19 -4 -23 -1
-23 16 0 37 -27 77 -64 95 -42 20 -62 20 -103 0z m81 -80 c9 -8 16 -24 16 -33
0 -16 -26 -90 -35 -99 -2 -2 -24 5 -49 16 l-46 21 16 38 c29 70 65 91 98 57z"/>
<path d="M680 4237 c0 -3 -11 -58 -25 -123 -14 -64 -24 -119 -21 -121 3 -3 82
-22 176 -43 117 -25 173 -34 176 -26 12 35 50 237 45 240 -3 2 -18 6 -32 9
-26 7 -27 5 -44 -76 -9 -45 -19 -85 -21 -88 -4 -6 -71 5 -79 13 -2 2 4 40 14
85 10 45 16 85 13 88 -3 3 -18 5 -33 5 -26 0 -28 -4 -39 -57 -21 -105 -20
-103 -49 -103 -50 0 -53 9 -34 98 9 45 15 83 13 86 -8 7 -60 19 -60 13z"/>
<path d="M5970 4162 c0 -42 18 -70 47 -74 26 -3 29 -8 44 -81 l17 -77 -29 -17
c-17 -10 -27 -23 -24 -31 3 -8 5 -25 5 -38 0 -13 5 -24 10 -24 6 0 82 45 169
100 l158 100 -9 48 -10 47 -166 29 c-92 15 -177 30 -189 33 -18 4 -23 1 -23
-15z m243 -98 c31 -3 57 -10 57 -14 0 -13 -123 -81 -131 -73 -4 4 -11 30 -14
57 -7 44 -6 48 11 43 11 -3 45 -9 77 -13z"/>
<path d="M6305 3660 l-100 -69 -77 -1 -78 0 0 -40 0 -40 78 0 77 -1 105 -65
105 -65 3 32 c5 46 0 52 -79 99 l-72 43 72 45 c70 45 71 46 71 89 0 24 -1 43
-2 43 -2 0 -48 -32 -103 -70z"/>
<path d="M623 3696 c-27 -24 -28 -27 -31 -144 l-4 -119 114 -6 c62 -4 143 -7
179 -7 l67 0 4 103 c7 158 -13 197 -98 197 -34 0 -47 -5 -62 -25 l-20 -26 -26
26 c-33 33 -85 34 -123 1z m251 -62 c11 -10 16 -34 16 -75 l0 -59 -45 0 -45 0
0 57 c0 79 35 116 74 77z m-143 -18 c7 -15 9 -43 5 -70 -7 -44 -8 -46 -42 -46
l-34 0 0 63 c0 35 3 67 7 70 16 16 54 6 64 -17z"/>
<path d="M4125 3340 c-172 -31 -296 -118 -359 -250 -26 -56 -30 -76 -31 -150
0 -77 3 -92 33 -152 59 -121 154 -178 418 -253 217 -62 269 -83 324 -132 72
-64 85 -142 40 -233 -36 -71 -110 -114 -225 -131 -169 -25 -339 32 -482 164
l-41 38 -56 -72 c-31 -40 -56 -76 -56 -80 0 -15 118 -115 168 -142 233 -126
572 -126 753 1 117 82 175 206 167 359 -7 138 -53 218 -172 294 -71 47 -126
68 -326 125 -168 49 -252 83 -288 117 -70 65 -70 161 1 235 66 69 163 95 298
81 125 -14 221 -55 308 -134 l37 -34 57 69 c31 39 57 74 57 79 0 16 -92 87
-160 124 -36 20 -99 45 -140 57 -85 23 -250 34 -325 20z"/>
<path d="M2240 2600 l0 -720 100 0 100 0 0 325 0 325 375 0 375 0 0 -325 0
-325 100 0 100 0 0 720 0 720 -100 0 -100 0 0 -305 0 -305 -375 0 -375 0 0
305 0 305 -100 0 -100 0 0 -720z"/>
<path d="M824 2841 c-92 -39 -57 -181 44 -181 78 0 121 96 70 155 -25 28 -79
40 -114 26z"/>
<path d="M6094 2841 c-57 -24 -71 -100 -28 -150 21 -25 33 -31 66 -31 82 0
128 94 76 155 -25 28 -79 40 -114 26z"/>
<path d="M1113 2133 l-143 -95 17 -29 c10 -16 21 -29 26 -29 4 0 35 18 67 40
l59 40 45 -70 c26 -39 46 -73 46 -75 0 -2 -27 -23 -60 -45 -33 -22 -60 -43
-60 -46 0 -10 33 -54 41 -54 10 0 299 189 299 196 0 11 -33 54 -42 54 -5 0
-28 -13 -51 -28 -23 -16 -47 -32 -54 -36 -11 -6 -84 88 -99 127 -3 8 16 28 51
50 30 21 55 41 55 45 0 15 -31 52 -43 51 -7 0 -76 -43 -154 -96z"/>
<path d="M5679 2153 c-51 -46 -69 -81 -69 -135 0 -51 18 -81 59 -98 43 -17 71
-7 138 50 64 56 96 62 101 19 4 -33 -39 -86 -84 -105 -31 -13 -32 -15 -21 -44
6 -16 17 -30 25 -30 38 0 106 58 136 117 42 83 0 173 -81 173 -42 0 -65 -13
-130 -72 -47 -42 -55 -45 -73 -23 -18 21 -4 50 46 94 38 33 44 43 38 65 -9 37
-36 33 -85 -11z"/>
<path d="M5371 1761 c-44 -49 -81 -91 -81 -94 0 -3 59 -60 130 -127 l130 -122
85 88 c46 49 84 94 85 100 0 6 -9 19 -21 30 -21 19 -21 19 -83 -48 l-61 -67
-32 27 -32 27 59 65 58 65 -21 23 -21 23 -63 -63 -63 -62 -27 27 -27 27 57 58
c31 32 57 62 57 68 0 11 -32 44 -42 44 -3 0 -42 -40 -87 -89z"/>
<path d="M1479 1737 c-87 -46 -128 -145 -95 -230 60 -157 267 -173 348 -27 30
55 21 148 -18 197 -37 46 -105 83 -155 83 -20 0 -56 -10 -80 -23z m135 -62
c84 -40 86 -155 3 -205 -60 -37 -132 -18 -161 43 -21 47 -12 91 30 132 29 29
44 37 87 44 5 0 23 -6 41 -14z"/>
<path d="M5048 1471 c-81 -52 -109 -151 -67 -238 32 -66 78 -96 155 -101 55
-4 70 -1 108 22 48 28 80 71 91 123 9 43 2 52 -37 44 -27 -6 -34 -13 -39 -41
-22 -105 -165 -108 -211 -4 -16 38 -17 50 -8 79 16 48 53 75 105 75 35 0 44 4
54 26 16 36 7 44 -53 44 -40 0 -62 -6 -98 -29z"/>
<path d="M1855 1300 c-54 -83 -96 -152 -94 -153 26 -18 61 -38 64 -35 1 2 31
48 66 102 35 55 64 95 66 90 2 -6 -8 -64 -21 -129 -13 -66 -22 -123 -20 -127
11 -17 35 -5 125 60 52 37 100 72 108 77 16 9 -7 -32 -71 -127 -54 -81 -55
-84 -18 -103 18 -9 33 -15 35 -13 14 15 185 289 185 296 0 5 -18 21 -41 36
l-40 27 -97 -70 c-53 -38 -98 -66 -100 -62 -1 5 6 50 18 102 11 51 20 101 20
111 0 15 -63 68 -81 68 -4 0 -51 -68 -104 -150z"/>
<path d="M4697 1244 l-28 -15 39 -72 c22 -40 61 -111 87 -159 25 -49 49 -88
51 -88 3 0 19 7 35 16 l30 15 -47 87 c-107 199 -126 232 -132 232 -4 -1 -20
-8 -35 -16z"/>
<path d="M2457 1152 c-13 -20 -128 -324 -124 -328 3 -3 229 -94 234 -94 0 0 6
14 12 31 10 29 9 30 -35 50 -25 10 -48 19 -50 19 -3 0 -20 6 -39 14 l-34 15
16 39 15 40 84 -33 83 -33 10 31 c6 16 11 31 11 32 0 2 -34 15 -75 30 -42 16
-78 31 -80 35 -6 10 15 70 24 70 4 0 34 -11 67 -24 101 -40 101 -40 112 -7
l11 30 -107 42 c-59 23 -112 44 -118 46 -7 2 -14 0 -17 -5z"/>
<path d="M4483 1135 l-32 -14 -3 -143 -3 -142 -93 112 -93 112 -36 -15 c-19
-8 -37 -15 -39 -15 -3 0 53 -67 123 -149 l128 -148 43 15 c24 8 45 19 47 26
10 27 9 376 0 376 -5 -1 -24 -7 -42 -15z"/>
<path d="M2880 973 c-44 -40 -50 -90 -16 -130 14 -17 47 -41 73 -53 83 -38
103 -68 62 -91 -29 -15 -87 2 -129 38 l-31 26 -25 -24 -24 -23 22 -24 c52 -56
173 -80 237 -48 52 28 67 106 29 150 -13 14 -52 41 -88 59 -69 36 -84 59 -50
77 25 14 75 0 115 -32 l26 -20 25 23 c23 22 23 23 6 42 -28 32 -93 57 -149 57
-44 0 -58 -5 -83 -27z"/>
<path d="M3835 967 c-33 -5 -61 -11 -63 -12 -2 -2 9 -82 24 -179 l28 -177 36
3 c39 3 39 5 26 91 l-7 47 33 0 c28 -1 39 -9 73 -56 38 -53 42 -55 78 -50 21
2 41 7 44 10 3 3 -16 30 -42 61 l-48 56 26 27 c33 35 42 72 27 116 -24 74 -81
89 -235 63z m153 -70 c16 -13 15 -52 -2 -66 -12 -10 -108 -33 -113 -27 -2 2
-7 24 -12 49 l-8 47 36 6 c20 3 41 7 46 8 12 4 36 -4 53 -17z"/>
<path d="M3318 773 c-3 -98 -4 -181 -1 -185 2 -5 60 -8 129 -8 l124 0 0 29 c0
25 -4 29 -37 35 -21 3 -62 6 -90 6 l-53 0 0 40 0 40 90 0 90 0 0 35 0 35 -85
0 -85 0 0 41 0 40 90 -3 90 -3 0 31 0 31 -97 6 c-54 4 -112 7 -129 7 l-31 0
-5 -177z"/>
</g>
</svg>
